<?xml version="1.0" standalone="no"?>
<!DOCTYPE svg PUBLIC "-//W3C//DTD SVG 20010904//EN"
 "http://www.w3.org/TR/2001/REC-SVG-20010904/DTD/svg10.dtd">
<svg version="1.0" xmlns="http://www.w3.org/2000/svg"
 width="500.000000pt" height="500.000000pt" viewBox="0 0 500.000000 500.000000"
 preserveAspectRatio="xMidYMid meet">

<g transform="translate(0.000000,500.000000) scale(0.100000,-0.100000)"
fill="#000000" stroke="none">
<path d="M2650 4164 c-118 -102 -235 -202 -260 -222 -217 -179 -345 -288 -373
-315 l-32 -33 -1 -544 c-1 -580 -7 -665 -48 -755 -27 -59 -108 -149 -128 -143
-18 6 -132 227 -169 328 -58 158 -72 246 -73 440 0 104 5 201 12 238 31 152
96 306 189 443 51 77 215 272 256 304 13 11 57 51 97 88 69 66 71 69 54 88 -9
10 -22 19 -29 19 -17 0 -180 -99 -282 -173 -362 -258 -608 -669 -654 -1096
-14 -126 -6 -350 15 -471 37 -203 141 -442 266 -610 300 -402 709 -584 1215
-540 415 35 743 211 1027 549 88 105 178 233 178 254 0 7 -10 23 -23 35 l-22
21 -66 -52 c-136 -109 -374 -237 -535 -287 -142 -44 -430 -90 -488 -79 -18 4
-19 36 -23 1133 -2 621 -2 1134 1 1142 4 9 31 1 104 -31 171 -75 486 -175 553
-175 12 0 78 54 161 133 78 72 167 156 200 186 32 29 55 57 52 62 -3 5 -32 9
-64 9 -220 0 -573 91 -803 206 -37 19 -74 34 -80 34 -7 0 -109 -83 -227 -186z
m0 -1344 c1 -639 -1 -1165 -4 -1168 -9 -9 -249 55 -329 87 -41 16 -115 54
-163 84 -89 55 -236 180 -264 224 -13 21 -13 24 8 39 37 26 179 152 275 244
145 139 210 258 237 430 7 44 14 271 17 556 4 332 9 485 17 495 19 25 198 181
202 176 2 -2 4 -527 4 -1167z"/>
</g>
</svg>
